<?xml version="1.0" encoding="UTF-8"?>
<!DOCTYPE svg PUBLIC "-//W3C//DTD SVG 1.1//EN" "http://www.w3.org/Graphics/SVG/1.1/DTD/svg11.dtd">
<!-- Creator: CorelDRAW X8 -->
<svg xmlns="http://www.w3.org/2000/svg" xml:space="preserve" width="11.6929in" height="8.26772in" version="1.1" style="shape-rendering:geometricPrecision; text-rendering:geometricPrecision; image-rendering:optimizeQuality; fill-rule:evenodd; clip-rule:evenodd"
viewBox="0 0 11693 8268"
 xmlns:xlink="http://www.w3.org/1999/xlink">
 <defs>
  <style type="text/css">
   <![CDATA[
    .fil12 {fill:#FEFEFE}
    .fil4 {fill:#263238}
    .fil6 {fill:#407BFF}
    .fil2 {fill:#E6E6E6}
    .fil0 {fill:#EBEBEB}
    .fil3 {fill:#F0F0F0}
    .fil1 {fill:whitesmoke}
    .fil5 {fill:white}
    .fil7 {fill:black;fill-opacity:0.101961}
    .fil8 {fill:white;fill-opacity:0.200000}
    .fil10 {fill:black;fill-opacity:0.301961}
    .fil11 {fill:white;fill-opacity:0.400000}
    .fil9 {fill:#407BFF;fill-opacity:0.501961}
   ]]>
  </style>
 </defs>
 <g id="Layer_x0020_1">
  <metadata id="CorelCorpID_0Corel-Layer"/>
  <g id="_1781412259280">
   <g id="_404_x0020_Error_x0020_with_x0020_a_x0020_cute_x0020_animal-rafiki.svg">
    <g id="freepik--background-complete--inject-31">
     <rect class="fil0" x="1843" y="6485" width="8006.67" height="4.00333"/>
     <rect class="fil0" x="7592" y="6637" width="1455.61" height="4.00333"/>
     <rect class="fil0" x="6748" y="6594" width="398.572" height="4.00333"/>
     <rect class="fil0" x="7440" y="6786" width="617.955" height="4.00333"/>
     <rect class="fil0" x="2683" y="6759" width="362.542" height="4.00333"/>
     <rect class="fil0" x="3188" y="6759" width="430.599" height="4.00333"/>
     <rect class="fil0" x="4698" y="6691" width="750.065" height="4.00333"/>
     <path class="fil0" d="M5638 5770l-3092 0c-50,0 -91,-41 -91,-91 0,0 0,0 0,0l0 -4347c0,-50 41,-90 91,-90l3092 0c51,0 92,41 92,91l0 4346c0,50 -41,91 -92,91l0 0zm-3092 -4525c-48,0 -87,39 -87,87 0,0 0,0 0,0l0 4347c0,0 0,0 0,0 0,48 39,87 87,87l3092 0c49,0 88,-39 88,-87l0 -4347c0,-48 -39,-87 -88,-87l-3092 0z"/>
     <path class="fil0" d="M9102 5770l-3092 0c-50,0 -91,-41 -91,-91l0 -4347c0,-50 41,-90 91,-90l3092 0c50,0 91,40 91,90l0 4347c0,0 0,0 0,0 0,50 -41,91 -91,91l0 0zm-3092 -4525c-48,0 -87,39 -87,87l0 4347c0,48 39,87 87,87l3092 0c48,0 87,-39 88,-87l0 -4347c-1,-48 -40,-87 -88,-87l-3092 0z"/>
     <path class="fil1" d="M8716 4558c-24,0 -48,4 -71,10 -53,-73 -137,-115 -227,-115 -65,0 -129,22 -179,64 -82,-137 -229,-221 -389,-221 -233,0 -427,177 -449,409 -23,-5 -46,-8 -69,-8 -177,0 -321,144 -321,321 0,177 144,320 321,320 52,0 104,-13 151,-38 46,165 196,280 367,280 142,0 271,-79 337,-204 77,66 175,102 277,102 230,0 419,-184 425,-414 69,-53 110,-136 110,-223 0,-156 -127,-283 -282,-283 -1,0 -1,0 -1,0l0 0z"/>
     <path class="fil1" d="M3007 2864c-19,-8 -39,-12 -59,-12 -59,0 -112,35 -136,89 -20,-11 -43,-16 -66,-16 -82,0 -148,66 -148,148 0,62 38,117 96,138l271 119 118 -271c8,-19 12,-39 12,-59 0,-59 -34,-112 -88,-136l0 0z"/>
     <path class="fil2" d="M4271 1573c-17,-33 -51,-53 -88,-53 -16,0 -31,4 -46,11 -17,-31 -50,-50 -86,-50 -54,0 -99,44 -99,99 0,15 4,30 10,43l93 175 174 -92c33,-17 53,-51 53,-87 0,-16 -4,-32 -11,-46l0 0z"/>
     <path class="fil1" d="M8296 1175c-17,-32 -50,-53 -87,-53 -16,0 -32,4 -46,12 -17,-33 -51,-53 -88,-53 -55,0 -99,44 -99,99 0,16 4,32 11,46l93 175 175 -92c32,-17 53,-51 53,-88 0,-16 -4,-32 -12,-46l0 0z"/>
     <path class="fil0" d="M8937 4069c-6,-35 -36,-62 -72,-62 -4,0 -8,1 -12,1 -7,-34 -36,-58 -71,-58 -40,0 -73,33 -73,73 0,3 0,5 0,8l23 144 144 -23c36,-5 62,-36 62,-72 0,-3 0,-7 -1,-11l0 0z"/>
     <path class="fil1" d="M7456 2831c-6,-1 -12,-2 -18,-2 -26,0 -49,17 -57,42 -5,-2 -11,-3 -18,-3 -33,0 -59,27 -59,60 0,26 17,49 42,57l114 36 36 -115c1,-5 2,-11 2,-17 0,-27 -17,-50 -42,-58l0 0z"/>
     <path class="fil1" d="M3018 1370c-5,-2 -11,-3 -17,-3 -27,0 -50,17 -58,42 -6,-1 -12,-2 -18,-2 -33,0 -59,26 -59,59 0,27 17,50 42,58l114 35 36 -114c1,-6 2,-12 2,-18 0,-26 -17,-49 -42,-57l0 0z"/>
     <path class="fil0" d="M4804 4043c0,-198 -150,-363 -347,-382 -106,-239 -344,-394 -605,-394 -213,0 -414,103 -538,276 -58,-42 -128,-65 -199,-65 -187,0 -338,151 -338,338 0,29 3,59 11,87 -115,97 -182,240 -182,391 0,282 229,511 511,511 143,0 280,-60 376,-165 103,133 262,211 430,211 254,0 474,-177 529,-425 199,-17 352,-183 352,-383l0 0z"/>
     <path class="fil3" d="M7397 2241c0,-133 101,-246 235,-259 71,-162 232,-267 410,-267 144,0 280,70 364,187 39,-28 87,-43 135,-43 126,0 229,103 229,229 0,20 -2,40 -8,59 79,65 124,163 124,265 0,191 -155,346 -346,346 -97,0 -190,-41 -256,-113 -69,91 -177,144 -291,144 -172,0 -321,-120 -358,-288 -135,-11 -238,-124 -238,-259 0,0 0,0 0,-1l0 0z"/>
    </g>
    <g id="freepik--Shadow--inject-31">
     <ellipse id="freepik--path--inject-31" class="fil1" cx="5846" cy="7027" rx="3105" ry="181"/>
    </g>
    <g id="freepik--error-404--inject-31">
     <path class="fil4" d="M4023 6618l-870 0c-43,0 -77,-35 -77,-77 0,0 0,0 0,0l0 -357c0,-18 7,-36 18,-50l984 -1169c14,-17 36,-27 59,-27l377 0c42,0 77,34 77,77l0 1089c0,43 35,77 77,77l100 0c43,0 77,35 77,78l0 281c0,43 -34,78 -77,78l-100 0c-42,0 -77,34 -77,77l0 224c0,43 -35,78 -77,78l-337 0c-42,0 -77,-35 -77,-78l0 -224c0,-42 -35,-77 -77,-77 0,0 0,0 0,0l0 0zm154 -413l0 -436c0,0 0,-1 0,-1 0,-30 -24,-54 -54,-54 -16,0 -31,7 -42,20l-370 435c-8,10 -13,23 -13,36 0,29 25,54 54,54l371 0c31,-6 55,-33 55,-66 0,-36 -30,-66 -67,-66 -3,0 -7,0 -11,1l77 77z"/>
     <path class="fil4" d="M5020 5976c0,-384 69,-653 208,-808 139,-154 208,-423 633,-230 136,0 248,17 336,50 80,29 153,74 214,131 52,50 96,107 131,170 34,66 60,136 76,208 38,152 57,309 57,466 0,2 0,4 0,7 0,367 -62,636 -187,806 -124,170 -186,439 -642,256 -170,0 -308,-27 -413,-81 -106,-55 -196,-138 -259,-240 -49,-75 -87,-177 -114,-306 -27,-134 -40,-272 -40,-409 0,-6 0,-13 0,-20l0 0zm598 430c0,258 23,434 68,529 46,94 69,270 198,141 1,0 2,0 2,0 55,0 108,-21 147,-60 42,-40 73,-103 92,-190 20,-86 51,-150 30,-404 0,-269 -23,-449 -69,-542 -45,-93 -68,-273 -204,-139 -94,0 -161,47 -202,142 -41,94 -109,141 -102,95l40 428z"/>
     <path class="fil4" d="M7795 6618l-870 0c-42,0 -77,-34 -77,-77l0 -357c0,0 0,0 0,0 0,-18 6,-36 18,-50l983 -1169c15,-17 37,-27 60,-27l376 0c43,0 78,34 78,77l0 1089c0,0 0,0 0,1 0,42 34,77 77,77 0,0 0,0 1,0l99 0c43,0 77,35 77,77l0 282c0,43 -34,77 -77,77l-99 0c-43,0 -78,35 -78,78l0 224c0,43 -34,77 -77,77l-336 0c-43,0 -78,-34 -78,-77l0 -224c0,0 0,0 0,0 0,-43 -34,-78 -77,-78l0 0zm155 -413l0 -435c0,-30 -25,-54 -54,-54 -16,0 -31,7 -42,19l-370 435c-1,0 -2,0 -2,0 -13,0 -25,4 -34,12l370 0c0,0 0,0 0,0 30,0 54,-24 54,-54 0,0 0,0 0,0l78 77z"/>
     <path class="fil5" d="M4370 5147c-15,32 -30,61 -45,91l-45 89 -45 89c-15,30 -31,60 -49,89 3,-34 9,-68 20,-101 9,-33 22,-65 38,-96 15,-31 33,-60 54,-88 21,-27 45,-52 72,-73l0 0z"/>
     <path class="fil5" d="M4427 5222c-14,28 -28,54 -42,81l-42 78 -41 79c-14,26 -28,53 -45,79 3,-31 9,-61 19,-90 9,-29 21,-58 35,-85 14,-27 31,-53 50,-77 19,-25 41,-46 66,-65l0 0z"/>
     <path class="fil5" d="M4272 5116c-13,28 -26,56 -39,83l-37 81 -38 82c-13,27 -26,55 -41,82 1,-31 6,-62 15,-92 8,-30 18,-59 32,-87 12,-28 28,-55 46,-80 17,-26 38,-49 62,-69l0 0z"/>
     <path class="fil5" d="M7944 6333c28,21 52,46 73,73 21,28 40,57 55,88 16,31 28,63 38,96 10,33 17,67 20,101 -19,-29 -34,-59 -49,-89l-45 -89 -45 -89c-16,-30 -31,-60 -47,-91z"/>
     <path class="fil5" d="M7888 6408c25,18 47,40 66,64 19,24 36,50 50,77 14,27 26,56 35,85 10,29 16,59 19,90 -17,-26 -31,-53 -45,-79l-41 -79 -42 -78c-14,-26 -28,-52 -42,-80z"/>
     <path class="fil5" d="M8043 6301c24,20 45,43 63,69 18,25 33,52 46,80 13,28 24,57 32,87 9,30 14,61 15,92 -16,-27 -29,-55 -41,-82l-38 -82 -38 -81c-13,-27 -26,-54 -39,-83z"/>
    </g>
    <g id="freepik--Error--inject-31">
     <polygon class="fil6" points="6633,6792 6846,6792 6846,6847 6713,6847 6713,6887 6836,6887 6836,6940 6713,6940 6713,6991 6850,6991 6850,7049 6633,7049 "/>
     <path class="fil6" d="M6850 7080l-217 0c-17,0 -31,-14 -31,-31l0 -256c0,0 0,0 0,0 0,-17 14,-31 31,-31 0,0 0,0 0,0l213 0c0,0 0,0 0,0 17,0 31,14 31,31 0,0 0,0 0,0l0 54c-9,5 -14,15 -14,25 0,5 1,11 4,15l0 53c-5,5 -8,13 -8,21 0,13 9,25 21,29l0 59c0,0 0,0 0,0 0,17 -13,31 -30,31 0,0 0,0 0,0l0 0zm-155 -93l34 0c-10,-6 -16,-16 -16,-27 0,0 0,0 0,0l0 -51c9,-6 14,-16 14,-26 0,-11 -5,-21 -14,-27l0 -9c0,-10 4,-18 11,-24l-29 0 0 164z"/>
     <path class="fil6" d="M6893 7049l0 -256 133 0c2,0 4,0 7,0 16,0 33,2 49,6 13,4 24,12 32,24 8,12 13,26 13,41 0,26 -13,49 -35,62 -9,5 -18,9 -28,11 7,2 14,5 20,9 5,4 9,8 13,13 4,5 8,11 11,16l39 75 -90 0 -42 -79c-4,-7 -9,-14 -15,-19 -5,-4 -12,-6 -19,-6 0,0 0,0 0,0l-7 0 0 104 -81 -1zm187 -250l34 0c7,-1 14,-2 21,-4 5,-1 10,-4 13,-8 3,-4 5,-10 5,-15 0,-7 -3,-14 -8,-19 -8,-4 -16,-7 -25,-7 -2,0 -3,0 -5,1l-35 0 0 52z"/>
     <path class="fil6" d="M7146 7080l-90 0c0,0 0,0 0,0 -11,0 -21,-6 -27,-16l-25 -47 0 32c0,17 -14,31 -31,31l-80 0c-17,0 -31,-14 -31,-31l0 -256c0,0 0,0 0,0 0,-17 14,-31 31,-31 0,0 0,0 0,0l132 0c3,0 5,0 8,0 19,0 39,3 58,8 19,6 36,19 47,35 12,17 18,37 18,57 0,1 0,2 0,2 0,1 0,2 0,2 0,18 -5,36 -14,51 -5,9 -12,18 -20,25 5,6 9,13 13,20l38 74c2,4 4,9 4,14 0,17 -14,31 -31,31l0 -1zm-44 -106l-7 0 -16 15c-2,-4 -4,-8 -7,-11 -2,-3 -5,-5 -7,-8l0 0c-4,-2 -8,-4 -12,-5 -4,-1 -8,-3 -11,-6l60 15zm-200 -9l18 0 0 -73c0,0 0,0 0,0 0,-10 5,-19 12,-24 -7,-6 -12,-15 -12,-25 0,0 0,0 0,0l0 -52c0,-8 3,-15 8,-21l-26 0 0 195zm112 -266c6,5 11,10 15,16 -1,-2 -1,-5 -1,-7 0,-1 0,-1 0,-1 0,-4 1,-8 3,-11l-1 0c-2,229 -8,230 -12,231l-4 -228zm50 -94l3 3c12,10 19,25 19,41 0,0 0,1 0,2 0,0 0,0 0,0 0,12 -4,24 -11,33 4,-1 7,-2 10,-4 6,-4 11,-9 15,-14 3,-6 4,-13 4,-20 0,-1 0,-1 0,-2 0,0 0,-1 0,-2 0,-8 -2,-15 -6,-22 -4,-5 -10,-9 -16,-11 -5,-1 -9,-1 -14,-1 -60,0 -109,48 -109,109 0,54 41,101 95,108l10 -220zm-43 258l0 0z"/>
     <path class="fil6" d="M7173 7049l0 -256 132 0c2,0 4,0 7,0 16,0 33,2 49,6 13,4 25,12 32,24 9,12 13,26 13,41 0,26 -13,49 -35,62 -9,5 -18,9 -28,11 7,2 14,5 21,9 5,4 9,8 13,13 4,5 7,11 11,16l38 75 -90 0 -43 -79c-3,-7 -8,-14 -14,-19 -6,-4 -12,-6 -19,-6 0,0 0,0 -1,0l-7 0 0 104 -79 -1zm186 -250l33 0c7,-1 14,-2 21,-4 6,-1 10,-4 13,-8 4,-4 5,-9 5,-14 0,0 0,-1 0,-1 0,0 0,-1 0,-1 0,-7 -3,-13 -8,-18 -7,-4 -16,-7 -24,-7 -2,0 -4,0 -5,1l-35 0 0 52z"/>
     <path class="fil6" d="M7425 7080l-89 0c0,0 0,0 0,0 -12,0 -22,-6 -28,-16l-25 -47 0 32c0,17 -14,31 -31,31l-80 0c-17,0 -30,-14 -31,-31l0 -256c0,-17 14,-31 31,-31l133 0c2,0 5,0 7,0 20,0 39,3 58,8 20,6 36,19 48,35 11,18 17,39 17,60 0,18 -4,36 -13,52 -6,10 -13,18 -21,25 5,6 10,13 13,20l38 74c3,5 4,9 4,14 0,17 -14,31 -31,31l0 -1zm-44 -106l21 0 -15 -29c-3,-4 -5,-7 -8,-11 -2,-3 -5,-6 -7,-8l0 0c-4,-2 -8,-4 -12,-5 -4,-1 -8,-3 -11,-6l32 59zm-172 -53l18 0 0 -73c0,0 0,0 0,0 0,-10 5,-19 12,-25 -7,-5 -12,-14 -12,-24 0,0 0,0 0,0l0 -52c0,0 0,0 0,0 0,-8 3,-15 8,-21l-26 0 0 195zm88 6c6,4 11,10 15,16 0,-2 0,-3 0,-4 0,-2 0,-3 0,-5 0,-3 1,-7 3,-11l-1 0c-7,2 -12,3 -17,4zm51 -94l4 2c12,11 18,26 18,41 0,1 0,1 0,2 0,0 0,0 0,0 0,12 -4,24 -11,34 4,-1 7,-3 10,-5 6,-3 11,-8 15,-14 3,-6 4,-13 4,-19 0,-1 0,-2 0,-2 0,-1 0,-2 0,-2 0,-8 -2,-16 -6,-22 -4,-6 -9,-10 -16,-12 -10,-6 -21,-9 -33,-11l15 8zm-48 30l0 0z"/>
     <path class="fil6" d="M7435 6921c-1,-4 -1,-8 -1,-12 0,-67 54,-122 122,-122 3,0 7,1 11,1 3,0 6,0 9,0 33,0 65,12 90,34 22,24 35,56 35,89 0,2 0,5 0,7 0,2 0,5 0,7 0,23 -5,46 -15,67 -10,19 -26,35 -44,45 -21,11 -43,16 -66,16 -2,0 -4,0 -6,0 -2,0 -3,0 -5,0 -23,0 -46,-5 -67,-14 -19,-9 -35,-25 -46,-44 -11,-21 -18,-45 -18,-69 0,-2 0,-3 0,-5l1 0zm97 74c0,3 0,6 0,8 0,17 5,34 15,48 10,11 24,17 39,17 15,0 29,-6 40,-17 9,-15 14,-32 14,-50 0,-3 0,-6 0,-9 0,-3 0,-5 0,-7 0,-16 -5,-33 -15,-46 -9,-11 -23,-16 -37,-16 -1,0 -2,0 -3,0 0,0 -1,0 -1,0 -15,0 -28,6 -37,17 -10,-9 -21,-15 -33,-19l18 74z"/>
     <path class="fil6" d="M7570 7084c-2,1 -3,1 -5,1 -28,0 -55,-6 -80,-17 -25,-13 -46,-32 -59,-56 -15,-26 -22,-56 -22,-85 0,-2 0,-4 0,-6 3,-92 78,-164 170,-164 42,0 83,15 114,44 28,29 44,69 44,110 0,3 0,5 0,8 0,2 0,4 0,6 0,28 -6,57 -19,82 -12,24 -32,44 -56,57 -25,14 -53,21 -81,21 -2,0 -4,0 -6,-1l0 0zm22 -264c15,4 28,13 38,24 15,19 23,42 23,66 0,3 -1,5 -1,8 0,36 -7,62 -21,80 -9,11 -21,19 -34,23 10,-1 20,-5 30,-10 13,-7 25,-18 32,-32 8,-17 12,-35 12,-54 0,-1 0,-3 0,-5 0,-3 0,-5 0,-8 0,-25 -9,-48 -26,-67 -15,-14 -33,-22 -53,-25l0 0zm3 25c-19,2 -37,11 -50,24 -17,19 -27,44 -27,69 0,2 0,5 1,7 0,2 -1,4 -1,6 0,18 5,37 14,54 7,14 19,25 33,32 8,4 17,6 26,8 -13,-5 -24,-13 -33,-23 -14,-23 -22,-49 -22,-76 0,-27 8,-53 22,-76 -10,-14 -16,-30 -16,-47 0,-1 0,-2 0,-2l53 24zm-12 83c-1,0 -2,0 -2,0 -5,0 -10,3 -13,6 -5,9 -8,19 -8,29 0,3 0,5 1,8 -1,2 -1,4 -1,7 0,10 3,20 8,29 3,3 8,6 13,6 1,0 2,0 3,0 11,0 14,-4 16,-6 1,-2 6,-9 6,-40 1,-2 1,-4 1,-6 0,-9 -3,-18 -8,-26 10,-6 17,-17 17,-28 0,-18 -15,-33 -33,-33 -6,0 -11,2 -16,5l16 49z"/>
     <path class="fil6" d="M7745 7049l0 -256 132 0c2,0 4,0 7,0 16,0 33,2 49,6 13,4 24,12 32,24 9,12 13,26 13,41 0,26 -13,49 -35,62 -9,5 -18,9 -28,11 7,2 14,5 21,9 4,4 9,8 12,13 4,5 8,11 11,16l39 75 -90 0 -42 -79c-4,-7 -9,-14 -15,-19 -5,-4 -12,-6 -19,-6 0,0 0,0 0,0l-7 0 0 104 -80 -1zm186 -250l34 0c7,-1 14,-2 21,-4 5,-1 10,-4 13,-8 3,-4 5,-10 5,-15 0,-7 -3,-14 -8,-19 -8,-4 -16,-7 -25,-7 -1,0 -3,0 -5,1l-35 0 0 52z"/>
     <path class="fil6" d="M7997 7080l-89 0c0,0 0,0 -1,0 -11,0 -21,-6 -27,-16l-25 -47 0 32c0,17 -14,31 -31,31l-80 0c-17,0 -31,-14 -31,-31l0 -256c0,0 0,0 0,0 0,-17 14,-31 31,-31 0,0 0,0 0,0l132 0c3,0 5,0 8,0 20,0 39,3 58,8 19,6 36,19 47,35 12,17 18,37 18,57 0,1 0,2 0,2 0,1 0,2 0,2 0,18 -5,36 -13,51 -6,9 -13,18 -21,25 5,6 9,13 13,20l38 74c3,4 4,9 4,14 0,17 -14,31 -31,31l0 -1zm-44 -106l21 0 -16 -29c-2,-4 -4,-8 -7,-11 -3,-3 -5,-6 -8,-8l0 0c-3,-2 -7,-4 -11,-5 -4,-2 -8,-4 -11,-6l32 59zm-172 -53l18 0 0 -74c0,0 0,0 0,0 0,-9 4,-18 12,-24 -8,-6 -12,-15 -12,-24 0,0 0,0 0,0l0 -52c0,0 0,0 0,0 0,-8 3,-16 8,-21l-26 0 0 195zm112 -266c6,4 11,10 15,16 -1,-2 -1,-3 -1,-4 0,-2 0,-3 1,-4 0,-4 1,-8 2,-12l-1 0c-30,274 -35,275 -40,276l24 -272zm51 -94l3 3c12,10 19,25 19,40 0,1 0,2 0,2 0,0 0,0 0,1 0,12 -4,23 -11,33 10,-3 19,-10 24,-19 3,-6 5,-14 5,-21 0,-8 -2,-17 -6,-24 -4,-6 -10,-10 -16,-12 -10,-2 -19,-3 -29,-3 -73,0 -133,60 -133,133 0,63 44,117 105,131l39 -264zm-16 55zm0 -14l0 0z"/>
     <polygon class="fil5" points="6633,6792 6846,6792 6846,6847 6713,6847 6713,6887 6836,6887 6836,6940 6713,6940 6713,6991 6850,6991 6850,7049 6633,7049 "/>
     <path class="fil5" d="M6893 7049l0 -256 133 0c2,0 4,0 7,0 16,0 33,2 49,6 13,4 24,12 32,24 8,12 13,26 13,41 0,26 -13,49 -35,62 -9,5 -18,9 -28,11 7,2 14,5 20,9 5,4 9,8 13,13 4,5 8,11 11,16l39 75 -90 0 -42 -79c-4,-7 -9,-14 -15,-19 -5,-4 -12,-6 -19,-6 0,0 0,0 0,0l-7 0 0 104 -81 -1zm187 -250l34 0c7,-1 14,-2 21,-4 5,-1 10,-4 13,-8 3,-4 5,-10 5,-15 0,-7 -3,-14 -8,-19 -8,-4 -16,-7 -25,-7 -2,0 -3,0 -5,1l-35 0 0 52z"/>
     <path class="fil5" d="M7173 7049l0 -256 132 0c2,0 4,0 7,0 16,0 33,2 49,6 13,4 25,12 32,24 9,12 13,26 13,41 0,26 -13,49 -35,62 -9,5 -18,9 -28,11 7,2 14,5 21,9 5,4 9,8 13,13 4,5 7,11 11,16l38 75 -90 0 -43 -79c-3,-7 -8,-14 -14,-19 -6,-4 -12,-6 -19,-6 0,0 0,0 -1,0l-7 0 0 104 -79 -1zm186 -250l33 0c7,-1 14,-2 21,-4 6,-1 10,-4 13,-8 4,-4 5,-9 5,-14 0,0 0,-1 0,-1 0,0 0,-1 0,-1 0,-7 -3,-13 -8,-18 -7,-4 -16,-7 -24,-7 -2,0 -4,0 -5,1l-35 0 0 52z"/>
     <path class="fil5" d="M7435 6921c-1,-4 -1,-8 -1,-12 0,-67 54,-122 122,-122 3,0 7,1 11,1 3,0 6,0 9,0 33,0 65,12 90,34 22,24 35,56 35,89 0,2 0,5 0,7 0,2 0,5 0,7 0,23 -5,46 -15,67 -10,19 -26,35 -44,45 -21,11 -43,16 -66,16 -2,0 -4,0 -6,0 -2,0 -3,0 -5,0 -23,0 -46,-5 -67,-14 -19,-9 -35,-25 -46,-44 -11,-21 -18,-45 -18,-69 0,-2 0,-3 0,-5l1 0zm97 74c0,3 0,6 0,8 0,17 5,34 15,48 10,11 24,17 39,17 15,0 29,-6 40,-17 9,-15 14,-32 14,-50 0,-3 0,-6 0,-9 0,-3 0,-5 0,-7 0,-16 -5,-33 -15,-46 -9,-11 -23,-16 -37,-16 -1,0 -2,0 -3,0 0,0 -1,0 -1,0 -15,0 -28,6 -37,17 -10,-9 -21,-15 -33,-19l18 74z"/>
     <path class="fil5" d="M7745 7049l0 -256 132 0c2,0 4,0 7,0 16,0 33,2 49,6 13,4 24,12 32,24 9,12 13,26 13,41 0,26 -13,49 -35,62 -9,5 -18,9 -28,11 7,2 14,5 21,9 4,4 9,8 12,13 4,5 8,11 11,16l39 75 -90 0 -42 -79c-4,-7 -9,-14 -15,-19 -5,-4 -12,-6 -19,-6 0,0 0,0 0,0l-7 0 0 104 -80 -1zm186 -250l34 0c7,-1 14,-2 21,-4 5,-1 10,-4 13,-8 3,-4 5,-10 5,-15 0,-7 -3,-14 -8,-19 -8,-4 -16,-7 -25,-7 -1,0 -3,0 -5,1l-35 0 0 52z"/>
    </g>
    <g id="freepik--Character--inject-31">
     <path class="fil4" d="M8673 2864c-64,-21 -131,-31 -198,-31 -3,0 -7,0 -10,0 -69,0 -137,14 -201,39 -26,10 -51,24 -74,42 -3,2 -5,4 -7,5 -2,2 -3,3 -6,7 -3,3 -11,10 -16,16 -11,11 -20,23 -29,36 -35,53 -58,113 -66,176 -2,14 -3,28 -3,41 0,17 2,33 4,49 2,14 6,28 10,42 4,13 10,26 16,39 17,33 38,65 59,95 25,35 53,73 80,119 32,52 55,109 67,168 5,26 8,53 8,80 0,7 0,14 -1,21 -2,33 -8,66 -17,98 -19,61 -50,118 -91,166 -21,24 -44,46 -69,65 -23,19 -49,35 -76,49 -52,27 -108,46 -166,55 -38,7 -76,10 -115,10 -16,0 -32,-1 -49,-2 -52,-4 -104,-12 -154,-25 -48,-12 -95,-28 -140,-46 -89,-34 -170,-73 -247,-106 -72,-33 -146,-58 -223,-75 -34,-7 -70,-10 -105,-10 0,0 0,0 0,0 -36,0 -72,3 -107,10 -75,15 -147,40 -214,75 -140,71 -270,179 -404,291l0 0c-21,19 -49,29 -77,29 -66,0 -120,-54 -120,-120 0,-35 15,-68 41,-91 132,-115 271,-239 444,-331 88,-47 182,-83 279,-104 51,-11 103,-17 155,-18 5,0 11,0 17,0 46,0 93,4 139,13 95,18 189,47 278,86 85,34 163,70 239,97 36,14 73,25 110,34 35,8 70,13 106,15 9,1 18,1 28,1 53,0 105,-12 153,-36 12,-7 23,-14 33,-23 10,-8 19,-17 27,-26 15,-19 26,-41 33,-64 3,-11 5,-22 5,-32 0,-1 0,-3 0,-4 0,-8 -1,-17 -3,-26 -7,-27 -18,-52 -33,-75 -18,-28 -42,-61 -69,-97 -31,-41 -59,-84 -84,-128 -14,-26 -26,-54 -36,-82 -9,-28 -17,-57 -22,-86 -6,-36 -10,-73 -10,-110 0,-20 1,-41 3,-62 12,-112 50,-220 111,-315 15,-23 32,-46 51,-68 9,-11 19,-22 29,-32 5,-5 11,-11 17,-17 6,-6 12,-11 18,-16 46,-37 97,-68 152,-91 99,-41 205,-64 313,-67 10,0 20,0 31,0 94,0 189,14 279,41 63,23 105,83 105,150 0,88 -72,160 -160,160 -12,0 -24,-1 -36,-4l-2 0z"/>
     <path class="fil6" d="M8669 2877c-68,-23 -139,-35 -210,-35 -19,0 -39,1 -58,3 -43,4 -87,13 -128,27 -34,12 -66,29 -95,52l-9 8c-28,26 -66,40 -104,40 -86,0 -155,-69 -155,-154 0,-43 18,-85 50,-114 56,-55 123,-98 195,-128 65,-27 134,-46 204,-57 48,-7 96,-10 144,-10 90,0 180,12 267,36 76,21 128,90 128,168 0,95 -78,173 -174,173 -15,0 -31,-2 -45,-6l-9 -3 -1 0z"/>
     <path class="fil4" d="M5683 4858l60 93c-60,31 -123,27 -186,27 -27,-126 126,-120 126,-120z"/>
     <path class="fil6" d="M5321 4364c76,218 357,507 357,507 0,0 -119,24 -87,106l166 0 356 -67c22,-5 37,-25 37,-47 0,-3 0,-5 -1,-8l-131 -441 -697 -50z"/>
     <path class="fil4" d="M6703 4489l32 130c62,-25 115,-42 143,-100 -32,-81 -175,-30 -175,-30z"/>
     <path class="fil6" d="M6421 3823c112,201 349,690 349,690 0,0 121,6 105,91l-471 116c-5,2 -11,3 -16,3 -17,0 -33,-8 -42,-22l-336 -285c183,-112 397,-406 411,-593z"/>
     <path class="fil7" d="M6203 4244c-55,67 -120,125 -192,173l96 78c104,-93 133,-192 96,-251z"/>
     <path class="fil6" d="M6083 3240c131,22 674,-52 714,-53 4,-30 18,-105 51,-91 32,13 49,69 42,96 77,-14 179,144 63,272 -168,189 -784,218 -784,218 0,0 -334,-411 -86,-442z"/>
     <path class="fil7" d="M6124 3492c-6,-1 -13,-1 -19,-1 -20,0 -40,3 -58,9 35,64 77,125 122,182 45,57 124,-6 276,-29 -83,-60 -216,-144 -321,-161z"/>
     <path class="fil6" d="M6890 3191c78,-32 133,-48 151,-21 18,27 -7,83 -82,97 -69,-43 -69,-76 -69,-76z"/>
     <path class="fil6" d="M6941 3258c82,-3 137,2 144,32 7,30 -34,73 -107,61 -49,-63 -37,-93 -37,-93z"/>
     <path class="fil6" d="M6993 3342c52,24 85,45 75,71 -9,26 -55,46 -96,12 0,-64 21,-83 21,-83z"/>
     <path class="fil6" d="M5080 3649c-60,118 -444,509 -469,540 -27,-14 -95,-48 -103,-13 -9,34 26,80 51,91 -58,53 8,229 180,214 253,-23 645,-499 645,-499 0,0 -130,-513 -304,-333z"/>
     <path class="fil7" d="M5258 3833c13,-23 31,-42 53,-57 29,66 54,136 73,206 18,71 -79,97 -189,204 2,-103 13,-260 63,-353z"/>
     <path class="fil6" d="M4559 4267c-73,43 -118,77 -107,107 10,31 70,45 127,-6 6,-82 -20,-101 -20,-101z"/>
     <path class="fil6" d="M4581 4347c-51,64 -80,111 -59,135 20,24 79,16 112,-50 -21,-76 -53,-85 -53,-85z"/>
     <path class="fil6" d="M4618 4439c-12,57 -14,96 12,103 27,8 70,-17 67,-69 -52,-40 -79,-34 -79,-34z"/>
     <path class="fil7" d="M6018 4416l0 -1 -213 -16c-4,92 103,150 246,125l-33 -108z"/>
     <path class="fil6" d="M6058 3314l-440 188 -439 188c0,0 47,568 191,762 144,195 422,135 668,30 246,-106 481,-266 440,-504 -41,-239 -420,-664 -420,-664z"/>
     <path class="fil8" d="M5866 3420l-239 102 -239 103c4,-47 -94,387 73,618 108,150 311,109 489,32 178,-76 348,-194 314,-377 -52,-279 -434,-507 -398,-478z"/>
     <path class="fil8" d="M5790 3487l-160 68 -159 69c1,-34 -54,278 64,450 77,112 214,87 332,36 119,-51 231,-133 204,-266 -42,-204 -306,-379 -281,-357z"/>
     <path class="fil8" d="M4696 4325c-15,-39 -53,-61 -83,-49 -30,12 -42,54 -26,93 15,39 53,61 83,49 30,-12 42,-54 26,-93z"/>
     <path class="fil8" d="M6959 3337c3,42 -21,78 -53,80 -33,2 -62,-30 -64,-72 -3,-42 21,-78 53,-80 33,-2 61,30 64,72z"/>
     <path class="fil4" d="M4657 2283c-639,-452 -1620,-175 -1697,-4 -82,181 807,671 1025,1144 319,-592 672,-1140 672,-1140z"/>
     <path class="fil9" d="M4421 2468c-505,-352 -1218,-194 -1264,-74 -49,128 645,518 839,869 198,-414 425,-795 425,-795z"/>
     <path class="fil4" d="M4484 2382c-143,10 -264,58 -371,171 29,-9 59,-14 90,-14 70,0 139,26 193,72l88 -229z"/>
     <path class="fil4" d="M5421 1955c306,-968 1399,-972 1617,-825 165,112 -539,559 -350,1205 -636,-218 -1267,-380 -1267,-380z"/>
     <path class="fil9" d="M5709 1934c256,-560 854,-784 1133,-734 264,47 -524,662 -363,1204 -381,-256 -770,-470 -770,-470z"/>
     <path class="fil4" d="M5692 1848c62,-34 132,-52 202,-52 42,0 83,7 123,19 -80,18 -145,77 -171,155l-154 -122z"/>
     <path class="fil4" d="M5705 1802c63,-58 146,-91 232,-91 4,0 8,0 12,0 -58,30 -96,89 -100,154l-144 -63z"/>
     <path class="fil6" d="M6877 2384c161,377 -421,833 -1232,1180 -810,348 -1542,455 -1704,78 -162,-377 228,-1283 1038,-1630 811,-348 1736,-5 1898,372z"/>
     <path class="fil7" d="M6557 2420c149,349 -307,750 -961,1030 -654,280 -1259,334 -1408,-15 -150,-350 212,-970 866,-1250 654,-280 1353,-114 1503,235z"/>
     <path class="fil4" d="M5241 2929c-14,-33 29,-71 90,-97 62,-27 119,-32 133,1 14,34 -7,121 -69,148 -62,26 -140,-19 -154,-52z"/>
     <path class="fil10" d="M5372 3223c-10,-22 35,-55 97,-81 62,-26 117,-37 126,-15 10,23 -21,89 -83,115 -61,27 -131,4 -140,-19z"/>
     <path class="fil11" d="M4228 2952c88,-253 290,-441 495,-488 347,-79 448,355 281,655 -187,335 -600,284 -641,130 -58,102 -294,156 -135,-297z"/>
     <path class="fil5" d="M5004 2667c0,0 -23,308 -186,416 -162,109 -402,-24 -402,-24 0,0 24,-308 186,-416 162,-109 402,24 402,24z"/>
     <path class="fil4" d="M4416 3057c0,-4 0,-9 0,-13 0,-71 11,-141 32,-209 11,-37 27,-72 46,-105 19,-35 45,-65 75,-91 32,-25 69,-43 108,-51 22,-5 45,-7 67,-7 17,0 34,1 50,4 75,11 147,39 210,81 -68,-26 -140,-42 -213,-48 -7,0 -15,-1 -22,-1 -28,0 -55,4 -82,11 -33,7 -64,23 -90,45 -27,22 -50,48 -68,78l-7 11 -7 12c-4,8 -9,16 -13,23 -7,16 -16,32 -22,49 -27,69 -49,140 -64,211l0 0z"/>
     <path class="fil5" d="M5437 2481c0,0 239,195 429,152 190,-43 260,-308 260,-308 0,0 -239,-196 -429,-152 -190,43 -260,308 -260,308z"/>
     <path class="fil4" d="M6126 2325c-62,-39 -129,-72 -197,-99 -16,-7 -34,-12 -51,-18 -8,-2 -17,-4 -26,-7l-13 -3 -13 -2c-21,-5 -43,-8 -65,-8 -13,0 -25,1 -38,3 -34,4 -66,15 -95,34 -29,18 -56,42 -78,69 -46,56 -84,119 -112,187 12,-75 41,-147 85,-208 23,-33 51,-61 83,-83 33,-23 72,-38 112,-43 13,-1 25,-2 37,-2 27,0 54,4 81,10 37,9 73,22 107,40 67,33 129,77 183,130l0 0z"/>
     <circle class="fil4" transform="matrix(0.940993 -0.228867 0.228867 0.940993 4810.52 2859.32)" r="179"/>
     <path class="fil5" d="M4671 2870c12,26 38,44 67,44 41,0 73,-33 73,-73 0,-41 -32,-73 -73,-73 -10,0 -19,2 -28,6 -27,11 -45,37 -45,67 0,10 2,19 6,29l0 0z"/>
     <circle class="fil4" transform="matrix(0.359799 -0.899107 0.899107 0.359799 5703.95 2476.54)" r="179"/>
     <path class="fil5" d="M5565 2487c11,26 38,44 67,44 40,0 73,-33 73,-73 0,-41 -33,-73 -73,-73 -10,0 -20,2 -29,6 -27,11 -44,37 -44,67 0,10 2,20 6,29l0 0z"/>
     <path class="fil5" d="M4836 2870c5,11 15,17 27,17 16,0 29,-13 29,-29 0,-16 -13,-29 -29,-29 -4,0 -8,1 -12,3 -10,4 -17,15 -17,26 0,4 0,8 2,12l0 0z"/>
     <path class="fil5" d="M5729 2487c5,11 16,18 27,18 16,0 29,-13 29,-29 0,-16 -13,-29 -29,-29 -3,0 -7,0 -11,2 -11,4 -18,15 -18,27 0,4 1,7 2,11l0 0z"/>
     <path class="fil4" d="M5636 3033c-8,6 -17,12 -26,16 -10,5 -20,9 -30,13 -20,7 -42,11 -64,11 -22,0 -44,-5 -65,-14 -21,-9 -40,-23 -55,-40l26 -12c1,6 1,11 1,16 0,18 -3,36 -9,52 -8,21 -20,41 -35,57 -15,16 -33,29 -52,39 -10,4 -20,8 -30,12 -10,3 -20,6 -30,8 9,-5 18,-10 27,-16 9,-6 17,-11 25,-17 16,-12 30,-26 43,-41 11,-15 20,-33 26,-51 2,-9 4,-18 5,-28 1,-4 1,-9 1,-13 0,-5 0,-9 -1,-14 0,0 0,0 0,-1 0,-7 6,-13 13,-15 1,0 1,0 2,0 4,0 9,2 12,6 5,7 12,13 19,19 8,5 16,10 24,14 17,9 36,14 55,16 6,1 13,1 20,1 13,0 26,-1 39,-3 10,-1 19,-5 30,-7 10,-1 19,-5 29,-8z"/>
     <path class="fil4" d="M5408 3025c-6,0 -11,-4 -14,-9l-44 -104c-1,-2 -1,-4 -1,-6 0,-6 3,-11 9,-13 2,-1 4,-1 6,-1 5,0 11,3 13,9l45 104c0,1 1,3 1,5 0,8 -7,15 -15,15 0,0 0,0 0,0l0 0z"/>
     <path class="fil6" d="M3952 3247c-129,61 -224,191 -247,344 114,-139 248,-98 248,-98l-1 -246z"/>
     <path class="fil6" d="M3966 3626c-20,43 -30,91 -30,139 0,65 19,128 53,183 -1,-138 97,-179 97,-179l-120 -143z"/>
     <path class="fil6" d="M3958 3414c-131,98 -206,264 -198,441 96,-183 255,-167 255,-167l-57 -274z"/>
     <path class="fil6" d="M6583 2120c134,-52 292,-30 420,58 -180,-13 -243,112 -243,112l-177 -170z"/>
     <path class="fil6" d="M6805 2384c108,-17 225,-4 297,67 0,0 0,0 0,0 -88,0 -174,31 -241,88l-56 -155z"/>
     <path class="fil6" d="M6769 2369c98,48 185,128 203,227 -64,-46 -141,-71 -219,-71 -10,0 -19,1 -29,1l45 -157z"/>
     <path class="fil6" d="M6700 2239c161,-27 333,33 456,161 -199,-57 -297,69 -297,69l-159 -230z"/>
     <path class="fil6" d="M4886 2083c-6,-91 37,-169 146,-249 -23,129 70,162 70,162l-216 87z"/>
     <path class="fil6" d="M5004 2033c21,-106 129,-209 286,-275 -112,121 -21,196 -21,196l-265 79z"/>
     <path class="fil4" d="M4110 3925c-1,0 -2,-1 -4,-1 -2,-2 -3,-4 -3,-6 0,-2 1,-3 2,-4 424,-635 1197,-885 1204,-888 1,0 2,0 2,0 4,0 6,2 8,5 0,1 0,2 0,2 0,4 -2,6 -5,7 -8,3 -776,252 -1197,881 -2,2 -4,4 -7,4l0 0z"/>
     <path class="fil4" d="M4227 4325c0,0 0,0 -1,0 0,0 -1,0 -1,0 -3,-1 -5,-4 -5,-7 0,-1 0,-2 0,-3 293,-856 1060,-1226 1068,-1230 1,0 2,-1 3,-1 3,0 5,2 7,4 0,1 0,2 0,4 0,2 -1,5 -4,6 -7,4 -768,372 -1060,1222 -1,3 -4,5 -7,5 0,0 0,0 0,0l0 0z"/>
     <path class="fil4" d="M5491 2964c0,0 0,0 0,0 -3,0 -5,-2 -6,-4 -1,-1 -1,-2 -1,-4 0,-2 1,-5 3,-6 7,-4 713,-405 1468,-291 3,0 6,3 6,7 0,0 0,1 0,1 -1,4 -4,6 -8,6 0,0 0,0 0,0 -750,-113 -1451,286 -1458,290 -1,0 -2,1 -3,1 -1,0 -1,0 -1,0l0 0z"/>
     <path class="fil4" d="M7006 3018c-1,0 -1,0 -2,0 0,0 0,0 -1,0 -893,-289 -1448,-32 -1453,-30 -1,1 -2,1 -3,1 -4,0 -7,-3 -7,-7 0,-3 1,-5 4,-7 5,-2 564,-262 1464,29 3,1 5,4 5,7 0,0 0,1 -1,2 -1,3 -3,5 -6,5 0,0 0,0 0,0z"/>
    </g>
    <g id="freepik--ball-of-yarn--inject-31">
     <circle class="fil6" transform="matrix(0.657988 -0.710563 0.710563 0.657988 5082.62 6680.83)" r="380"/>
     <path class="fil6" d="M6115 7065c-183,0 -247,-69 -309,-136 -21,-23 -43,-45 -67,-64 -94,-71 -241,-104 -315,-70 -1,1 -2,1 -2,1 -9,0 -16,-8 -16,-16 0,-5 2,-10 5,-13 85,-38 243,-5 346,73 26,21 50,44 72,68 60,65 117,126 286,126 2,0 4,0 6,0 81,0 157,-43 198,-114 17,-29 26,-62 26,-96 0,-31 -8,-63 -24,-91 -38,-61 -117,-93 -222,-88 -2,1 -3,1 -5,1 -9,0 -16,-7 -16,-16 0,-9 7,-16 16,-16 1,0 2,0 4,0 116,-5 205,31 249,103 19,33 29,70 29,108 0,38 -10,76 -30,110 -46,80 -132,130 -225,130 -2,0 -4,0 -6,0l0 0z"/>
     <path class="fil6" d="M5238 6962c-194,-2 -381,-73 -527,-200 -2,-3 -3,-6 -3,-9 0,-9 8,-16 16,-16 3,0 5,1 7,2 129,114 357,223 612,184 2,-1 5,-1 7,-1 9,0 16,7 16,16 0,9 -7,16 -16,16 -1,0 -1,0 -2,0 -36,5 -73,8 -110,8 0,0 0,0 0,0l0 0z"/>
     <path class="fil6" d="M5198 7008c-189,0 -350,-75 -491,-226 -3,-3 -4,-7 -4,-11 0,-4 1,-8 4,-11 3,-3 7,-4 11,-4 4,0 8,1 11,4 156,168 338,237 556,211 2,-1 4,-2 6,-2 9,0 16,8 16,16 0,9 -7,16 -16,16 0,0 -1,0 -2,0 -30,4 -61,6 -91,7l0 0z"/>
     <path class="fil6" d="M4919 7026c0,0 0,0 0,0 -9,0 -16,-6 -16,-14 -14,-181 48,-468 218,-704 2,-2 6,-3 10,-3 9,0 16,7 16,16 0,2 -1,3 -1,5 -164,229 -225,509 -212,684 0,0 0,0 0,0 0,8 -6,15 -15,16l0 0z"/>
     <path class="fil6" d="M4765 6883c-3,0 -6,-1 -8,-3 -5,-3 -7,-7 -7,-13 0,-3 1,-5 2,-8 54,-85 254,-370 567,-470 1,-1 3,-1 4,-1 7,0 13,4 15,11 1,1 1,3 1,4 0,7 -4,13 -11,15 -303,97 -498,375 -550,458 -3,4 -8,7 -13,7l0 0z"/>
     <path class="fil6" d="M4765 6883c0,0 0,0 0,0 -2,0 -4,0 -6,-1 -5,-3 -9,-9 -9,-15 0,-2 0,-4 1,-5 95,-236 288,-419 528,-502 0,0 1,0 1,0 9,0 16,7 16,16 0,5 -2,10 -7,13 -231,80 -418,257 -510,484 -3,6 -8,10 -14,10l0 0z"/>
     <path class="fil6" d="M4873 6999c0,0 0,0 0,0 -8,0 -15,-6 -16,-13 -39,-334 71,-525 195,-682 3,-3 8,-5 12,-5 4,0 7,1 10,3 3,3 5,7 5,12 0,4 -1,7 -3,10 -120,151 -226,336 -188,658 0,0 0,1 0,1 0,8 -6,15 -14,16l-1 0z"/>
     <path class="fil6" d="M4830 6964c-7,0 -13,-4 -15,-11 -48,-177 -12,-453 184,-643 3,-3 7,-5 11,-5 4,0 8,2 11,5 2,3 4,7 4,11 0,4 -2,8 -4,11 -179,172 -224,439 -176,613 1,1 1,2 1,3 0,7 -5,13 -11,16l-5 0z"/>
     <path class="fil6" d="M5446 6748c-3,0 -6,-1 -9,-3 -229,-164 -508,-225 -683,-212 -8,-1 -13,-8 -13,-16 0,-7 4,-13 11,-15 180,-13 468,49 703,218 4,3 6,8 6,12 0,9 -7,15 -15,16l0 0z"/>
     <path class="fil6" d="M5449 6705c0,0 0,0 0,0 -2,0 -4,0 -6,-1 -205,-91 -516,-103 -722,-28 -3,2 -6,3 -10,3 -9,0 -16,-7 -16,-16 0,-8 7,-15 15,-16 213,-77 534,-65 746,29 5,3 9,8 9,14 0,2 -1,4 -2,6 -2,6 -8,9 -14,9l0 0z"/>
     <path class="fil6" d="M5449 6662c-5,0 -9,-2 -12,-5 -152,-165 -349,-224 -640,-190 -2,0 -4,1 -6,1 -9,0 -16,-7 -16,-16 0,-9 7,-16 16,-16 0,0 1,0 2,0 297,-35 509,29 666,200 3,3 4,7 4,10 0,9 -7,16 -15,16l1 0z"/>
     <path class="fil6" d="M5437 6599c-4,0 -8,-1 -11,-4 -190,-190 -459,-217 -580,-176 -1,0 -1,0 -1,0 -9,0 -16,-7 -16,-16 0,-6 2,-11 7,-14 129,-43 413,-16 612,184 3,3 4,7 4,11 0,4 -1,8 -4,11 -3,3 -7,4 -11,4l0 0z"/>
     <path class="fil6" d="M5366 6932c-1,0 -1,0 -2,0 -1,0 -2,0 -2,0 -369,-109 -639,-357 -642,-360 -1,-2 -2,-5 -2,-8 0,-9 7,-16 16,-16 2,0 5,1 7,2 3,2 268,245 630,352 5,3 9,8 9,14 0,8 -6,15 -14,16l0 0z"/>
     <path class="fil6" d="M5373 6922c-2,0 -4,0 -6,-1 -222,-99 -436,-219 -637,-357 -7,-2 -11,-8 -11,-15 0,-8 7,-16 16,-16 5,0 9,3 12,6 200,136 412,256 632,354 5,2 8,8 8,13 0,8 -6,15 -14,16l0 0z"/>
     <path class="fil6" d="M5387 6903c0,0 0,0 0,0 -3,0 -5,-1 -7,-2 -315,-169 -645,-334 -649,-335 -3,-3 -5,-8 -5,-12 0,-9 7,-16 16,-16 1,0 2,0 3,0 3,2 334,166 649,336 5,3 7,8 7,13 0,9 -6,15 -14,16l0 0z"/>
     <path class="fil6" d="M5398 6886c0,0 0,0 0,0 -4,0 -7,-1 -9,-3 -286,-224 -646,-328 -650,-329 -4,-3 -7,-8 -7,-14 0,-9 7,-16 16,-16 0,0 0,0 0,0 4,1 368,106 660,335 3,3 5,7 5,12 0,3 -1,6 -3,9 -3,4 -7,6 -12,6 0,0 0,0 0,0l0 0z"/>
     <path class="fil6" d="M5428 6824c-4,0 -7,-1 -10,-3 -262,-216 -673,-266 -676,-267 -6,-2 -10,-8 -10,-15 0,-8 5,-15 13,-16 5,0 423,53 692,274 4,3 6,7 6,12 0,3 -1,7 -3,9 -3,4 -8,6 -12,6l0 0z"/>
     <path class="fil6" d="M4945 7039c-8,-1 -15,-8 -15,-16 0,-5 2,-9 6,-12 292,-211 458,-504 460,-507 2,-7 8,-12 16,-12 8,0 16,7 16,16 0,4 -2,8 -5,11 -2,3 -172,302 -469,517 -3,2 -6,3 -9,3l0 0z"/>
     <g>
      <path class="fil10" d="M5238 6962c-194,-2 -381,-73 -527,-200 -2,-3 -3,-6 -3,-9 0,-9 8,-16 16,-16 3,0 5,1 7,2 129,114 357,223 612,184 2,-1 5,-1 7,-1 9,0 16,7 16,16 0,9 -7,16 -16,16 -1,0 -1,0 -2,0 -36,5 -73,8 -110,8 0,0 0,0 0,0l0 0z"/>
      <path class="fil10" d="M5198 7008c-189,0 -350,-75 -491,-226 -3,-3 -4,-7 -4,-11 0,-4 1,-8 4,-11 3,-3 7,-4 11,-4 4,0 8,1 11,4 156,168 338,237 556,211 2,-1 4,-2 6,-2 9,0 16,8 16,16 0,9 -7,16 -16,16 0,0 -1,0 -2,0 -30,4 -61,6 -91,7l0 0z"/>
      <path class="fil10" d="M4919 7026c0,0 0,0 0,0 -9,0 -16,-6 -16,-14 -14,-181 48,-468 218,-704 2,-2 6,-3 10,-3 9,0 16,7 16,16 0,2 -1,3 -1,5 -164,229 -225,509 -212,684 0,0 0,0 0,0 0,8 -6,15 -15,16l0 0z"/>
      <path class="fil10" d="M4765 6883c-3,0 -6,-1 -8,-3 -5,-3 -7,-7 -7,-13 0,-3 1,-5 2,-8 54,-85 254,-370 567,-470 1,-1 3,-1 4,-1 7,0 13,4 15,11 1,1 1,3 1,4 0,7 -4,13 -11,15 -303,97 -498,375 -550,458 -3,4 -8,7 -13,7l0 0z"/>
      <path class="fil10" d="M4765 6883c0,0 0,0 0,0 -2,0 -4,0 -6,-1 -5,-3 -9,-9 -9,-15 0,-2 0,-4 1,-5 95,-236 288,-419 528,-502 0,0 1,0 1,0 9,0 16,7 16,16 0,5 -2,10 -7,13 -231,80 -418,257 -510,484 -3,6 -8,10 -14,10l0 0z"/>
      <path class="fil10" d="M4873 6999c0,0 0,0 0,0 -8,0 -15,-6 -16,-13 -39,-334 71,-525 195,-682 3,-3 8,-5 12,-5 4,0 7,1 10,3 3,3 5,7 5,12 0,4 -1,7 -3,10 -120,151 -226,336 -188,658 0,0 0,1 0,1 0,8 -6,15 -14,16l-1 0z"/>
      <path class="fil10" d="M4830 6964c-7,0 -13,-4 -15,-11 -48,-177 -12,-453 184,-643 3,-3 7,-5 11,-5 4,0 8,2 11,5 2,3 4,7 4,11 0,4 -2,8 -4,11 -179,172 -224,439 -176,613 1,1 1,2 1,3 0,7 -5,13 -11,16l-5 0z"/>
      <path class="fil10" d="M5446 6748c-3,0 -6,-1 -9,-3 -229,-164 -508,-225 -683,-212 -8,-1 -13,-8 -13,-16 0,-7 4,-13 11,-15 180,-13 468,49 703,218 4,3 6,8 6,12 0,9 -7,15 -15,16l0 0z"/>
      <path class="fil10" d="M5449 6705c0,0 0,0 0,0 -2,0 -4,0 -6,-1 -205,-91 -516,-103 -722,-28 -3,2 -6,3 -10,3 -9,0 -16,-7 -16,-16 0,-8 7,-15 15,-16 213,-77 534,-65 746,29 5,3 9,8 9,14 0,2 -1,4 -2,6 -2,6 -8,9 -14,9l0 0z"/>
      <path class="fil10" d="M5449 6662c-5,0 -9,-2 -12,-5 -152,-165 -349,-224 -640,-190 -2,0 -4,1 -6,1 -9,0 -16,-7 -16,-16 0,-9 7,-16 16,-16 0,0 1,0 2,0 297,-35 509,29 666,200 3,3 4,7 4,10 0,9 -7,16 -15,16l1 0z"/>
      <path class="fil10" d="M5437 6599c-4,0 -8,-1 -11,-4 -190,-190 -459,-217 -580,-176 -1,0 -1,0 -1,0 -9,0 -16,-7 -16,-16 0,-6 2,-11 7,-14 129,-43 413,-16 612,184 3,3 4,7 4,11 0,4 -1,8 -4,11 -3,3 -7,4 -11,4l0 0z"/>
      <path class="fil10" d="M5366 6932c-1,0 -1,0 -2,0 -1,0 -2,0 -2,0 -369,-109 -639,-357 -642,-360 -1,-2 -2,-5 -2,-8 0,-9 7,-16 16,-16 2,0 5,1 7,2 3,2 268,245 630,352 5,3 9,8 9,14 0,8 -6,15 -14,16l0 0z"/>
      <path class="fil10" d="M5373 6922c-2,0 -4,0 -6,-1 -222,-99 -436,-219 -637,-357 -7,-2 -11,-8 -11,-15 0,-8 7,-16 16,-16 5,0 9,3 12,6 200,136 412,256 632,354 5,2 8,8 8,13 0,8 -6,15 -14,16l0 0z"/>
      <path class="fil10" d="M5387 6903c0,0 0,0 0,0 -3,0 -5,-1 -7,-2 -315,-169 -645,-334 -649,-335 -3,-3 -5,-8 -5,-12 0,-9 7,-16 16,-16 1,0 2,0 3,0 3,2 334,166 649,336 5,3 7,8 7,13 0,9 -6,15 -14,16l0 0z"/>
      <path class="fil10" d="M5398 6886c0,0 0,0 0,0 -4,0 -7,-1 -9,-3 -286,-224 -646,-328 -650,-329 -4,-3 -7,-8 -7,-14 0,-9 7,-16 16,-16 0,0 0,0 0,0 4,1 368,106 660,335 3,3 5,7 5,12 0,3 -1,6 -3,9 -3,4 -7,6 -12,6 0,0 0,0 0,0l0 0z"/>
      <path class="fil10" d="M5428 6824c-4,0 -7,-1 -10,-3 -262,-216 -673,-266 -676,-267 -6,-2 -10,-8 -10,-15 0,-8 5,-15 13,-16 5,0 423,53 692,274 4,3 6,7 6,12 0,3 -1,7 -3,9 -3,4 -8,6 -12,6l0 0z"/>
      <path class="fil10" d="M4945 7039c-8,-1 -15,-8 -15,-16 0,-5 2,-9 6,-12 292,-211 458,-504 460,-507 2,-7 8,-12 16,-12 8,0 16,7 16,16 0,4 -2,8 -5,11 -2,3 -172,302 -469,517 -3,2 -6,3 -9,3l0 0z"/>
     </g>
    </g>
   </g>
   <g>
    <path class="fil12" d="M5623 3774l230 -118c16,52 3,94 -32,128l-204 105c-19,-36 -20,-73 6,-115z"/>
    <path class="fil12" d="M5853 3784l-229 118c33,44 75,58 123,48l44 -22 -13 -27 9 -5 13 27 9 -4 -24 -45 10 -5 24 44 8 -4 -20 -38 9 -4 20 37 115 -59c-19,-36 -49,-59 -98,-61z"/>
    <path class="fil12" d="M5728 3976l229 -118c16,52 3,94 -32,128l-204 105c-18,-36 -20,-74 7,-115z"/>
   </g>
  </g>
 </g>
</svg>
